<?xml version="1.0" encoding="UTF-8"?>
<svg id="Layer_1" data-name="Layer 1" xmlns="http://www.w3.org/2000/svg" viewBox="0 0 358.47 232.85">
  <defs>
    <style>
      .cls-1 {
        fill: #fff;
      }

      .cls-2 {
        fill: #d65863;
      }

      .cls-3 {
        fill: #154f74;
      }

      .cls-4 {
        fill: #b91c1c;
      }

      .cls-5 {
        fill: #d75e66;
      }
    </style>
  </defs>
  <path class="cls-4" d="M257.79,47.69l-20.56-14.24C175.5-.82,100.26,17.08,57.65,71.86c-1.63,1.82-11.79,2.42-11.04-.44.54-2.07,8.23-11.43,10.18-13.64C110-2.45,199.36-11.47,262.64,38.87c.62-4.11-6.45-16.86-5.65-19.67.49-1.7,7.3-3.93,8.61-3.11,1.24.77,9.04,24.07,10.05,27.39,1.73,5.69,5.91,13.2-1.57,15.65l-22.87-1.8c-4.16-.67-18.65,2.26-19.68-3.17-.22-1.15,2.07-6.48,2.9-6.48h23.36Z"/>
  <path class="cls-3" d="M73.55,187.69c-1.6,1.1-3.01,1.26-4.25.5.4-11.26.16-22.57-.72-33.95-8.5-11.11-33.48-10.49-32.92,7.56l.05,19.59-1.82,1.02c-.1,1.34-.12,6.68-2.14,6.11-2.52-.7-7.14-5.56-7.5-8.37,1.1-17.59-1.63-37.24-.09-54.58.54-6.05,5.94-14.69,12.12-16.07,3.73-.83,26.57-.81,30.62-.14,4.9.82,10.98,7.69,12.4,12.27,2.59,8.32,2.07,40.7,1.3,50.63-.53,6.83-1.26,11.33-7.04,15.42Z"/>
  <path class="cls-3" d="M76.96,89.19c.35.55.3,4.64.11,5.61-.67,3.52-3.92,1.71-6.55,2.25-6.12,1.25-6.86,6.8-9.93,7.69-3.5,1.02-14.69,1.32-17.89-.26-1.51-.74-3.13-5.11-5.84-6.49-5.09-2.59-12,2.15-10.03-7.61.43-2.12,7.95-3.85,10.26-3.93,3.15-.11,3.5,2.71,5.68,3.87,3.61,1.94,13.22,1.92,17.1.48,2.8-1.04,4.06-4.17,6.21-4.38.96-.1,10.58,2.29,10.89,2.76Z"/>
  <path class="cls-3" d="M62.09,151.58c1.85.15,4.89,2.33,3.53,4.4.63,10.49.79,21.01.49,31.55,2.76,2.02-.63,5.85-3.14,3.67-.09-.19.05-.56,0-.88-.19-1.23-.78-1.96-1.77-2.2l.15-15.15c.28-7-4.78-14.5-12.27-10.78l-1.97-.93c-11.03,5.67-4.44,19.48-6.17,29.94h-2.64c-1.54-10.94-2.96-22.11-1.77-33.27.92-8.65,11.01-11.62,18.43-10.58,2.7.38,6.7,1.16,7.14,4.22Z"/>
  <path class="cls-1" d="M33.89,182.4c.96-13.48-5.12-35.1,14.55-36.97,7.44-.71,18.98,1.1,21.17,9.65,2.52,9.79.37,22.23,1.29,32.18.24,2.59,1.13.23,2.65.42-2.77,1.96-3.66,1.25-5.29,2.24-.28.17-3.37,5.13-5.28,1.28,3.08.11,2.43.54,2.65-2.16.84-10.66-.63-22.3,0-33.06l1.19-.3c-.07,7.07.28,14.11,1.05,21.14-1.02-5.96-1.26-12.05-.73-18.3.19-3.52-1.67-5.98-5.03-6.95-2.23-.68-4.1-2.07-6.84-2.41-6.75-.84-16.03,1-16.98,8.99-1.21,10.19.94,22.6.02,33.04-2.13-3.17,1.06-7.64-4.41-8.81Z"/>
  <path class="cls-3" d="M93.71,91.83c.73,1.18.27,4.52-1.32,5.05-1.83.61-11.89.7-12.56-1.31-2.57-7.73,13.41-4.49,13.88-3.73Z"/>
  <path class="cls-3" d="M10.08,91.71c2.78,1.06,11.16-1.15,12.71-.78,1.9.45,2.57,5.45-.81,6.06-4.32.78-13.33,1.07-11.9-5.28Z"/>
  <path class="cls-1" d="M62.09,151.58s-.09-1.01.48-.85c2.25.63,4.34,1.87,5.48,4.04-.55,5.19-1.4,12.49-.74,17.57.2,1.55,2.63,1.37,1.85,7.02l-2.66,8.33c-.92-9.25,1.19-20.62.04-29.59-.18-1.38-.58-1.4-.93-2.11-.84-1.71-2.67-2.7-3.53-4.4Z"/>
  <path class="cls-3" d="M144.08,208.82c-.23.74-1.92,3.4-1.76,3.51h36.14s0-71.75,0-71.75c0-2.49,9.63-12.5,9.7-16.29h-12.78c-4.56,0-5.06-11.39-2.65-14.1s19.15-2.96,20.28,3.51l14.67-31.11c3.68-4.69,12.35-5.23,17.95-5.84,20.01-2.18,60.76-2.72,80.15.93,3.49.66,6.82,3.32,8.61,6.37l12.18,28.79c3.76-1.11,3.87-3.88,8.34-4.42,9.8-1.19,16.28-.13,14.5,10.97-1.21,7.56-11.54,3.74-16.7,5.35,3,6.16,8.35,11.1,10.53,17.66-.4,23.27,1.12,46.83-.82,69.94,4.17-.61,13.3.1,8.82,5.74-21,.95-42.05.22-63.07.39-50.07.4-100.47.2-150.7.21-41.02.01-86.58,4.14-126.5-1.06-2.58,0-2.47-2.94,0-3.52.52-.04,1.87-1.69,3.92-1.81,10.22-.6,21.06.54,31.34.04-.91-1.47-1.57-1.99-1.81-3.9-.92-7.21-.97-32.6,0-39.72.34-2.48,1.94-4.33,4.45-4.8,2.46-4.76,11.48-.36,11.95,5.08.96,6.25.72,12.75.38,19.09-.02.28-.57.54-1.28.78l-.48,19.96c-.48,1.22-2.15,1.86-1.76,3.52h69.63c-2.19-4.35-1.59-7.74-1.76-12.32-1.62-5.44-2.16-11.2-1.63-17.3.26-13.07,23.57-12.76,22.26.99-.05,8.46-.76,16.83-2.12,25.12Z"/>
  <path class="cls-1" d="M62.98,190.33c-.21-.57-1.74-2.92-2.64-1.76-.65.84.81,15.9-.89,20.25-1.48-8.63,2.54-36.11-1.37-42.21-1.75-2.73-6.24-3.24-9.2-2.69-.01-1.28-.5-2.26-1.76-2.64,2.93-1.51,3.11-2.42,7.29-1.56,13,2.67,7.25,21.51,8.58,30.62Z"/>
  <path class="cls-1" d="M239.98,83.16c14.01-.69,28.07,0,42.09-.3,6.5,2.08,21.09-.83,25.49,4.47,1.64,1.98,10.76,22.53,11.52,25.47.63,2.44,1.22,5.26-1.55,6.43-37.4,1.79-75.18-.39-112.66,1.16-1.9-1.11-4.49-2.37-4.04-4.93.59-3.36,7.64-18.41,9.62-22.18.86-1.63,2.48-4.9,3.65-6.04,3.43-3.34,20.47-3.82,25.88-4.08Z"/>
  <rect class="cls-1" x="206.66" y="196.45" width="107.54" height="15.89"/>
  <rect class="cls-1" x="233.94" y="168.31" width="53.64" height="13.25"/>
  <path class="cls-1" d="M323.73,141.28c7.45-.64,11.2-2.09,9.66,7.01-.82,4.88-2.7,6.63-7.37,7.6-4.35.9-14.87,1.92-19.31,1.93-4.76,0-7.06-1.56-3.95-5.79,5.94-8.08,11.21-9.92,20.97-10.75Z"/>
  <path class="cls-1" d="M189.59,141.15c3-.99,16.6,1.34,19.77,2.9,5.16,2.54,18.04,14.56,4.81,13.7-3.79-.25-21.3-1.71-23.35-3.11-2.51-1.71-4.21-12.51-1.23-13.49Z"/>
  <path class="cls-5" d="M326.55,178.88v7.05c-4.45-.72-13.88,2.57-13.92-4.14-.03-4.72,10.64-2.38,13.92-2.91Z"/>
  <path class="cls-2" d="M195.2,185.93c-1.62-8.15,3.47-7.91,10.18-7.09,2.9.36,3.29.94,3.12,4.01-.3,5.55-9.16,2.22-13.3,3.08Z"/>
  <path class="cls-3" d="M120.27,196.49c-5.34-3.1-5.69-7.95-6.16-13.66-1.2-14.55-1.31-30.26-1.74-44.93-.19-6.44-2.78-10.29,1.72-16.7,6.91-9.85,11.5-7.34,21.64-7.44,2.35-.02,4.51-1.04,7.01-.99,7.6.15,15.58,7.98,16.32,15.48-1.85,19.63-.94,41.31-3.61,60.68-.64,4.64-3.24,6.24-6.97,8.44l-1.63-.95c1.14-8.03.21-15.16-2.78-21.4-19.15-6.74-21.69,2.33-20.35,19.21-1.17,2.24-2.32,2.98-3.45,2.25Z"/>
  <path class="cls-1" d="M148.48,197.48c-.19.81-2.95,3.57-3.33,5.07-.57,2.24-.27,3.75-1.09,6.42-1.28-7.24,2-24.93-.65-30.74-1.93-4.23-13.99-4.1-16.53-.16-2.2,3.42-1.55,17.27-1.38,22.06l-.89-5.3c-3.72-.41.33,4.53-4.42,1.76,2.67.49,1.71-1.35,1.77-3.05.54-16.06-2.88-24.23,18.14-21.73,4.19.5,6.7,2.3,7.77,6.38.8,3.05,1.27,16.49.61,19.29Z"/>
  <path class="cls-1" d="M120.72,129.57h29.09c.52,0,2.1,2.04,2.15,3.04.41,7.29-10.18,11.88-16.26,12-7.96.15-20.62-5.78-14.98-15.04Z"/>
  <path class="cls-3" d="M113.02,82.22c.59,1.06-.14,2.89,1.01,4.72s6.2,3.99,7.56,6.52c6.18-12.62,21.22-12.64,27.32.01.89-2.2,7.65-5.41,8.17-6.36.56-1.01-.03-2.8.63-4.2.79-1.66,13.12-7.54,15.22-7.77,5.34-.58.77,9.61-1.5,11.77-5.28,5.03-10.87,2.52-15.01,4.38-7.81,3.49-7.22,17.86-19.85,18.93-15.72,1.33-12.84-13.66-22.14-18.39-4.79-2.43-11.38.04-16.22-6.06-1.5-1.9-4.31-10.47-1.32-10.74.88-.08,15.64,6.34,16.12,7.2Z"/>
  <ellipse class="cls-1" cx="135.16" cy="97.41" rx="9.64" ry="9.63"/>
  <path class="cls-4" d="M9.07,215.84s.17-3.37,5.81-3.54c5.65-.17,163.57.05,163.57.05h163.96s13.74-2.5,8.82,5.74c0,0-243.35,1.12-250.93,1.34s-95.49,3.3-91.24-3.58Z"/>
  <rect class="cls-3" x="124.21" y="174.13" width="20.81" height="40.66" rx="9.03" ry="9.03"/>
  <rect class="cls-3" x="43.47" y="162.89" width="16.53" height="52.34" rx="8.01" ry="8.01"/>
  <path class="cls-3" d="M47.11,161.27s7.85-2.53,13.48,2.35-4.37-7.75-4.37-7.75l-9.1,5.4Z"/>
  <polyline class="cls-1" points="46.67 161.51 47.65 161.12 47.84 161.61"/>
  <path class="cls-1" d="M58.41,150.06s6.32,2.43,7.1,16.23,1.68-12.81,1.68-12.81l-8.78-3.43Z"/>
  <path class="cls-3" d="M65.39,164.98s1.02-13.9-8.77-15.53"/>
</svg>